<svg height="24" viewBox="0 0 24 24" width="24" xmlns="http://www.w3.org/2000/svg"><path d="m19.2297826 4.56938696c.724783.06170605 1.3933182.28922554 1.99849.70255263.6204197.42401361 1.0988645.98316001 1.4841279 1.62883277.4970812.83320398.8305017 1.73121654 1.0006003 2.68990097.0711569.40160639.1297765.80597057.1782309 1.21102427.0403222.3354189.0572643.6739403.0833552 1.0114276.0101652.1337538.0172809.2678525.0254131.4016063-.0437106-.1506454-.0799667-.3030146-.1233385-.4533153-.1463797-.5057138-.3466353-.9852284-.6627749-1.4078631-.3974616-.53156828-.9152122-.86319518-1.5681607-.96316587-.4476102-.06860058-.8874271-.01413379-1.320806.10652049-.0603139.0168916-.122322.03137012-.1792474.05653515-.1118954.04937199-.2218169.10419453-.3374814.15975714.0159013.06307981.0331476.12540231.0508519.18757342.012507.04358224.0027043.07040207-.0341406.09822766-.5841094.44051581-1.170923.87767921-1.7489479 1.32590581-.257914.200143-.4559974.4532552-.5202224.7821335-.0476617.2464073-.0618588.4951613-.0077746.744921.0361688.1669535.052394.33793.090253.504213.0283942.1247122.0763939.2450663.1166191.3670965.0070985.0217911.0179153.0422413.0304223.0714078.0973516-.0774422.1882806-.1488501.2785337-.2212636.7166156-.5749503 1.4328933-1.1502358 2.149847-1.7251861.0283942-.0224617.0452955-.041906.0395491-.0848178-.0726757-.5531592-.1788159-1.0996134-.3245052-1.6386921-.0054085-.0201149-.0091268-.0409003-.0152112-.0700668.077746 0 .1507597-.0036878.2230973.0003352.84946.0502872 1.6309767.2873075 2.2955364.8351027.4559974.3754778.7663055.8525356.9708114 1.4006661.1270979.3402767.205858.6909461.2487873 1.0510024.0405632.340612.063549.6822297.0459716 1.0241826-.0179154.3453054-.0354927.6932928-.0946473 1.032899-.0567885.3251906-.1686752.6403237-.2923928.9490871-.4688424 1.1730327-1.0982473 2.2521959-1.9000456 3.2327963-1.0586983 1.2947277-2.3377896 2.3192455-3.8278094 3.0862929-1.0431491.536732-2.1430865.9135508-3.2977843 1.1254275-.3894062.0714078-.7835448.1237065-1.1776835.1572313-.412392.035201-.8274883.0492814-1.2412324.0503062-.4549834.0009867-.9089526-.037902-1.3608937-.0958999-1.736779-.2219342-3.35119244-.7878328-4.83783195-1.703395-1.76618723-1.0875445-3.16291176-2.5314576-4.17665252-4.331404-.28394207-.5042129-.48033532-1.0503319-.6408978-1.6068436-.1068163-.3701137-.19064681-.7459267-.22985786-1.1291152-.09768959-.9645084.04191526-1.8854346.54016597-2.7346178.39920902-.6805534.9549242-1.2112509 1.61711765-1.6360101.48202545-.3090986.99751551-.5498067 1.54511806-.7227947.03819696-.0120689.0747038-.0295018.12202748-.04827567-.00405632.02179107-.00574645.03922397-.01014079.05565117-.13352037.4867801-.23459023.9802651-.31166022 1.4784436-.01216894.0781128-.02399986.1565608-.02873223.2353441-.00169013.0264846.01047882.0640323.02974631.079789.78929133.6359654 1.57993476 1.2699194 2.3705782 1.9038733.01791539.0147509.03684486.0284961.06760525.0519634.02197171-.0616856.03853499-.1119728.05780249-.1615895.09059104-.2353441.1338584-.4810808.16563287-.7298349.0064225-.0486109.01554921-.0968866.02298579-.1454976.04732367-.3087634.02264776-.6118275-.10614025-.8977941-.05070394-.1129785-.12574577-.2199226-.20822418-.3134568-.28258996-.3204971-.65239069-.538073-.98500854-.7992312-.33532205-.2628344-.67841871-.5152762-1.01881116-.77308188.05712644-.21087098.1118867-.42107146.17205537-.62993096.01385908-.04794046.00067605-.06939633-.03954907-.0915227-.15413998-.08381199-.31673061-.14851485-.49013808-.17533469-.2251255-.03520104-.45160309-.07744228-.67808069-.08213576-.69971437-.01508616-1.31931651.22025793-1.87401761.63361869-.59898254.4468856-1.04686734 1.0211654-1.41294979 1.6631652-.05814052.1022507-.11188669.206848-.167323.3090987.15988642-1.1492301.4401102-2.38495417.90016394-3.47249862.27718154-.65473931.6202782-1.27058986 1.07762773-1.8200613.6010107-.72212415 1.35075296-1.22231414 2.25970558-1.48112559.48574375-.13812217.98433249-.17097647 1.48663952-.14516237.42895533.02212636.85115013.09621617 1.26421823.21556445.31470245.09118745.62399648.19746106.92044551.33658897.0192675.0090517.03380263.02749034.05678842.04693472-.03583079.02380261-.06253486.04157075-.08923894.05900365-1.48123109.95981497-2.53587303 2.25990665-3.16663004 3.89960453-.02264776.05900365-.01588724.0908522.03887302.12471225.31875876.19679057.63751753.39358113.95255801.59607091.46985651.3017232.92551591.6228908 1.34703466.9893168.20653405.1796929.40360336.369108.56450387.5913774.09228117.1277295.17475957.262164.19233694.4220773.0077746.0734193-.00270421.1488501-.0077746.2229399-.02805618.412355-.1054642.8173345-.19605524 1.2199674-.17171734.7633596-.39447665 1.5129741-.63920766 2.2562189-.00912671.0284961-.01690132.0573274-.02907026.0978924.08484459.0077107.16495681.0164272.24540707.0221264.5560532.0375477 1.11278246.0516282 1.66984974.0385535.64055977-.0150862 1.2790914-.0590037 1.9030879-.2175759.2852941-.0727489.5617996-.1682945.8004462-.3476522.1500836-.1129786.2636605-.2521065.3038856-.4401806.0064225-.0288313.0098027-.0593389.0091267-.0888407-.0077746-.3831885-.0162253-.7663769-.0270421-1.1495654-.0010141-.0251436-.0192675-.0566569-.0395491-.0740898-.5759967-.5015309-1.1536836-1.0013857-1.7310325-1.5015757-.0141971-.0124042-.0280562-.0251436-.0544222-.0486109 1.4061892.1790224 2.7968293.2128824 4.2043707-.0140804-.0263661.0268198-.0412392.0429117-.0567884.0579979-.5178563.5072301-1.0357125 1.0147956-1.5542448 1.5213553-.0348167.0335248-.051042.0673848-.051718.1170015-.0060845.344635-.0131831.6892699-.025352 1.0339048-.0067605.1880741.064225.341953.1896327.4750464.15414.163601.3495192.2631697.5560532.3426235.3109842.1196835.6354894.1850568.964389.2336678.7176297.1052679 1.4403299.1136491 2.1633681.0988982.3319418-.006705.6635455-.0325191.9951493-.049952.0185914-.0010057.0371829-.0070402.064225-.0124042-.0287323-.0898464-.0557744-.1746642-.0828165-.2591467-.2393226-.744921-.4593776-1.495206-.6216303-2.2609124-.077408-.3660908-.1328443-.7348635-.1663089-1.1083298-.0175773-.1934381.0392111-.3536866.1375767-.5072302.1663089-.2594819.3836598-.4750464.6199402-.6698255.1784778-.1468386.3691247-.2792615.5590954-.412355.154478-.1082851.3163926-.2065127.4735748-.3114454.2274917-.1518673.4543073-.30474037.6797708-.45861919.192013-.13104832.3820397-.26472324.572701-.39712575-.6766893-1.60101577-1.7556175-2.86989644-3.2433772-3.80549284.040661-.03412793.0759006-.06515331.1124955-.09445506.5055522-.40608784 1.063625-.70220791 1.6972595-.8425116.3405362-.07549511.6834443-.09204198 1.0297408-.0623955zm-7.3589762 11.52241094c-.3714909.0603447-.7439958.1213598-1.1090642.2102005-.86838949.210871-1.74658172.3536866-2.63795698.4113493-.35289942.0227968-.70748897.0197796-1.06106445.0284961-.03380262.0006705-.06760525 0-.1081684 0 .00743658.0167624.0141971.0345305.02264776.0516282.20450589.3972688.44281441.7737523.72134805 1.1240864.46918045.5900365.98669866 1.1230808 1.64720198 1.5149857.76799564.455602 1.58094884.7593367 2.47705644.8082829.321801.0174329.6473203.0003352.9691213-.0248084.3147025-.0244731.6219684-.1039269.9238258-.1977963.5949262-.1850569 1.13205-.4834276 1.6438217-.8297388.3427587-.2323268.6287289-.527345.9045583-.8327559.41104-.4549316.7629253-.9500928 1.0526138-1.4891716.0223097-.0415707.0412392-.085153.0632109-.1314172-.0375209.0030172-.0628729.0060345-.0882248.0063697-.6912637.0103927-1.3798232-.0301723-2.0639884-.1280647-.3491811-.049952-.6976862-.1069441-1.0434871-.17567l-1.4957662-.3158036c-.2694069-.0533044-.5455744-.0740898-.8176855-.0301723zm2.902253-8.00068361.3641551.01727668c.0605336.00408267.1208051.00994529.1805403.01935536.5533822.08637095 1.0848866.26180144 1.6105997.45706028.0128693.00470503.0257387.01109044.0472948.0205005-1.0137833.32531938-2.0121234.66643423-2.9268127 1.25321898.1817796-.58443224.3603419-1.15642974.6228767-1.69481987.0225213-.04637818.0476166-.07595267.1013461-.07259193zm-5.53610808.00629645c.04509277.00404777.06455727.02529854.08304855.06206574.18069549.356878.31467617.73399483.44314191 1.11347285.0655305.19395544.12554605.39027207.18815688.58557676-.45741587-.29177644-.93916238-.52013788-1.43583167-.71206943-.49537166-.19125693-.9975559-.36328696-1.49098111-.54172596.00746139-.00337314.02822353-.01382987.0499589-.0219254.47233866-.17169272.94857022-.32888095 1.44199543-.42231688.23779137-.04486273.47655597-.08601502.72051111-.06307768zm2.88558918-8.09741074c.0373131.00530301.0746262.01378784.1119393.01520197.9126853.0381817 1.8088603.18772668 2.6891856.44792788.01618.00459595.0316996.01025249.0465588.02015145-.1139205-.01414137-.2281713-.02969687-.3424221-.04242411-.1987831-.02227265-.3975662-.0526766-.5970097-.06186849-.3619042-.01696964-.7247989-.03323222-1.0873635-.0279292-.5590363.00848482-1.1131194.07318158-1.6497018.25595878-.3097318.10570674-.600642.25136285-.8453235.48717018-.2829853.27292843-.434219.61302837-.45799372 1.02100688-.02608615.44121072.07528662.85661345.23906812 1.2525718.1294401.31287779.2895893.61090716.4368605.9149466.0161801.03358575.0359923.06540383.0591066.10712087-.0865135.01767671-.1657626.03429282-.2450117.05020186-.57554649.1166663-1.13095049.30227178-1.66654222.55610936-.04061515.01909085-.05943681.01378783-.09278747-.02404033-.08189072-.0929795-.16972512-.18136306-.26482402-.25807999-.43058669-.34646355-.89551465-.62787681-1.40568064-.81631055-.3216192-.11878751-.64786126-.22131244-.98731151-.26409008-.2707677-.03429282-.54186561-.04207057-.81428434-.02262619-1.0596263.07565633-1.95150871.56141237-2.74928282 1.28014747-.0217935.01944438-.04457761.03853523-.07528663.04949479.12481731-.16368635.24732318-.3294939.37544254-.49035198.76376305-.96161313 1.64045604-1.78570143 2.63635287-2.46271949 1.22274734-.83115899 2.542905-1.40706626 3.96146361-1.72206527.43917201-.09757545.88230643-.17075703 1.33006383-.2075246.2185954-.01803024.437521-.02934334.6561164-.04454531.0227841-.00176767.045238-.00883835.0676919-.0134343zm3.0744671 1.02245777c.2366628.01358742.4746626.0446444.7073142.09058285 1.519589.29957043 2.8927679.91812192 4.1429357 1.80001069.0828988.05823183.1668005.11614016.2423454.18245975.0718679.06340799.1337078.13781534.1982218.20542897-.0708652-.02814539-.1490842-.05726131-.2256319-.09025935-.3884211-.16757827-.7872046-.30442308-1.2050414-.38465361-.8159518-.15690244-1.6004822-.09058285-2.330861.32286317-.5622413.31801051-.9800781.77124829-1.2892773 1.32218614-.0150422.02685135-.02975.05434971-.0461292.08443616-1.0639797-.33612709-1.1378533-.45809043-3.0455291-.56355475-.0127023-.09414146-.0294157-.18925346-.0381067-.28501248-.0404466-.45226724-.0013371-.89515269.1818426-1.31798051.242011-.55870209.6782327-.91941595 1.2531762-1.13455023.2958285-.11064048.6040249-.17178391.9189067-.20057632.1781657-.01617551.3583369-.0414093.535834-.03138048z" fill="#31526f" fill-rule="evenodd"/></svg>