<svg height="26" viewBox="0 0 72 26" width="72" xmlns="http://www.w3.org/2000/svg"><g fill="#fff" transform="translate(0 .083333)"><path d="m10.4148752 17.0425231v-3.5505257h-6.3436058v-12.23747834h-4.0712694v15.78800404zm6.2209866.284042c1.7515926 0 3.6452063-.4970736 4.7813745-1.5148909l-1.5385611-2.2723364c-.6390946.5680841-1.7752628.970477-2.7930802.970477-1.7042523 0-2.6983994-.970477-2.911431-2.0356347h8.1425388v-.7811157c0-3.88190799-2.4616978-6.36727594-5.8465322-6.36727594-3.5741958 0-6.0832339 2.67472932-6.0832339 5.98855324 0 3.7162168 2.7220696 6.0122234 6.2489251 6.0122234zm2.2013259-7.2194021h-4.710364c.142021-.82845599.7574454-1.9646242 2.3433469-1.9646242 1.6805821 0 2.2723364 1.15983838 2.3670171 1.9646242zm10.358222 7.2194021c3.9292484 0 6.2489251-2.7930801 6.2489251-6.0122234 0-3.21914324-2.3196767-5.98855324-6.2489251-5.98855324-3.881908 0-6.225255 2.76941-6.225255 5.98855324 0 3.2191433 2.343347 6.0122234 6.225255 6.0122234zm0-3.2191432c-1.5859015 0-2.4616978-1.2545191-2.4616978-2.7930802 0-1.51489093.8757963-2.76940999 2.4616978-2.76940999 1.6095716 0 2.5090381 1.25451906 2.5090381 2.76940999 0 1.5385611-.8994665 2.7930802-2.5090381 2.7930802zm17.1236225 2.9351012v-3.5505257h-6.3436058v-12.23747834h-4.0712694v15.78800404zm2.9032821-12.87657301c1.1598383 0 2.082975-.92313667 2.082975-2.08297505 0-1.15983837-.9231367-2.08297504-2.082975-2.08297504-1.1598384 0-2.0829749.92313667-2.0829749 2.08297504 0 1.15983838.9231365 2.08297505 2.0829749 2.08297505zm1.8226031 12.87657301v-11.43269259h-3.6452061v11.43269259zm5.6719164.284042c3.2901538 0 5.2074376-1.6095716 5.2074376-3.7872273 0-3.0297819-2.8877608-3.5031853-4.8287149-3.83456772-1.2071787-.21303153-1.8226031-.4023929-1.8226031-.92313666 0-.49707359.5917543-.78111564 1.4438804-.78111564 1.3728699 0 2.6747293.59175427 3.3611643 1.25451906l1.3965401-2.41435744c-1.2308489-.89946649-2.8640907-1.51489094-4.7813746-1.51489094-3.1718029 0-4.8997253 1.75159265-4.8997253 3.76355718 0 2.91143106 2.7457398 3.31382396 4.6866938 3.64520636 1.1835085.1893613 1.9646242.4023929 1.9646242.9941471 0 .4970736-.4497333.8521262-1.5385611.8521262-1.3491998 0-3.1718029-.7574455-4.0239291-1.5148909l-1.5148909 2.5090381c1.2071787 1.0651577 3.3138239 1.7515926 5.3494586 1.7515926zm10.2449155 0c1.3491998 0 2.2486662-.3313824 2.6983995-.7574454l-.7101051-2.7457399c-.1183509.1420211-.5207438.2840421-.9231367.2840421-.6390946 0-1.0178174-.4970736-1.0178174-1.1598384v-4.16595008h2.3196768v-3.17180291h-2.3196768v-3.12446256h-3.6215361v3.12446256h-1.8936137v3.17180291h1.8936137v5.18376748c0 2.2013259 1.2545191 3.3611642 3.5741958 3.3611642z"/><path d="m2.23549046 25c.57711452 0 1.0445593-.2454085 1.40233437-.7362256l-.38564197-.2103501c-.10787187.16001-.25304943.2894562-.43553268.3883387-.18248326.0988826-.37620316.1483239-.58115972.1483239-.26608395 0-.5069978-.0633748-.72274155-.1901242-.21574374-.1267495-.38564194-.3047381-.5096946-.5339658-.12405265-.2292277-.18607898-.4867718-.18607898-.7726323 0-.4386789.13483984-.7978023.40451953-1.0773703.26967968-.2795679.60767821-.4193519 1.0139956-.4193519.20675442 0 .40092379.0489918.58250811.1469754s.32631242.2278793.43418429.3896872l.38024838-.2157438c-.33979643-.4872213-.80544334-.730832-1.39694078-.730832-.26248822 0-.51014407.0467445-.74296753.1402335-.23282345.093489-.43373482.2224857-.60273408.3869904-.16899927.1645045-.30294018.3663148-.40182273.6054308s-.14832382.4971096-.14832382.7739807.04944127.5348647.14832382.7739807.23282346.4409263.40182273.6054309c.16899926.1645046.36991063.2935014.60273408.3869904.23282346.0934889.48047931.1402334.74296753.1402334zm2.23263954-.0674199.32631244-.8225231h1.83382183l.32631239.8225231h.52317859l-1.48054143-3.6838245h-.56902416l-1.48593502 3.6838245zm2.0279912-1.2270426h-1.56414215l.7793743-1.9875393zm2.03847019 1.2270426v-2.9395086l2.14665031 2.9395086h.4422746v-3.6838245h-.4584554v2.8774822l-2.11968232-2.8774822h-.4692426v3.6838245zm3.71048421 0 .3263125-.8225231h1.8338218l.3263124.8225231h.5231786l-1.4805415-3.6838245h-.5690241l-1.485935 3.6838245zm2.0279913-1.2270426h-1.5641422l.7793743-1.9875393zm2.8394188 1.2270426c.2822647 0 .5416067-.0467445.7780259-.1402335.2364192-.0934889.4355327-.2220362.5973405-.3856419s.2876583-.3582245.3775515-.5838565c.0898933-.225632.1348399-.4687932.1348399-.7294836 0-.3469878-.0764093-.6598162-.2292278-.9384853-.1528185-.278669-.3739558-.4993568-.663412-.6620636-.2894562-.1627067-.6211622-.2440601-.995118-.2440601h-1.2594041v3.6838245zm0-.4099132h-.8009487v-2.8639982h.8009487c.2948498 0 .550596.0647231.7672387.1941694.2166427.1294462.3784505.3011423.4854234.5150882.106973.2139459.1604594.4557586.1604594.7254383 0 .266084-.0543854.5060989-.1631562.7200448-.1087708.2139458-.271927.3856419-.4894686.5150882-.2175416.1294462-.4710405.1941693-.7604967.1941693zm2.6614303.4099132.3263124-.8225231h1.8338218l.3263124.8225231h.5231786l-1.4805415-3.6838245h-.5690241l-1.485935 3.6838245zm2.0279911-1.2270426h-1.5641421l.7793743-1.9875393zm1.1377401-1.2594041c.1312441-.0952868.2382171-.2170922.3209188-.365416.0827018-.1483238.1240527-.3042885.1240527-.4678942 0-.1294463-.0332605-.2314751-.0997815-.3060865s-.1492228-.111917-.2481053-.111917c-.0809039 0-.1496722.0292153-.206305.0876459-.0566327.0584306-.0849491.1280978-.0849491.2090017 0 .0791061.0256196.1460765.0768587.2009114.0512392.0548348.113715.0822523.1874274.0822523.0341595 0 .0602285-.0044947.0782071-.013484-.0107872.0880953-.0507896.1811348-.1200074.2791185-.0692178.0979836-.1487733.1766401-.2386666.2359697zm2.4861384 2.5538666c.2391161 0 .4490167-.0310132.6297021-.0930395.1806854-.0620264.3222672-.145627.4247455-.2508021s.1788875-.219789.2292277-.3438416c.0503403-.1240527.0755103-.2561957.0755103-.3964291 0-.1474249-.0247206-.278669-.0741619-.3937324-.0494412-.1150633-.1164117-.2099007-.2009113-.2845121-.0844996-.0746113-.1811349-.1402334-.2899057-.1968661-.1087708-.0566328-.2233847-.1033772-.3438416-.1402334-.1204569-.0368563-.2413633-.0714652-.3627191-.1038267-.1213559-.0323616-.2364192-.0656221-.34519-.0997815s-.205406-.072364-.2899057-.1146139c-.0844996-.0422498-.1514701-.0966352-.2009114-.1631562-.0494412-.066521-.0741619-.1438292-.0741619-.2319245 0-.172595.0714652-.3132779.2143954-.4220487s.3240651-.1631562.5434045-.1631562c.4494662 0 .8045444.1474249 1.0652348.4422747l.2750733-.3370996c-.3290092-.3469879-.7631936-.5204819-1.3025529-.5204819-.3667644 0-.670154.0957364-.9101689.2872089-.2400149.1914726-.3600224.4382295-.3600224.7402708 0 .1402334.0247206.2647355.0741619.3735063s.1164117.1977651.2009114.2669829c.0844996.0692178.1811348.1298957.2899056.1820338s.2238342.0952868.34519.1294463c.1213559.0341594.2422623.0674199.3627192.0997814.1204569.0323616.2350708.0669705.3438416.1038267s.205406.079106.2899056.1267494c.0844997.0476435.1514701.1096698.2009114.186079.0494413.0764093.0741619.1649541.0741619.2656345 0 .0773082-.0148324.1514701-.0444971.2224857-.0296648.0710157-.0764092.1388851-.1402334.2036082-.0638242.0647232-.1546164.1168612-.2723765.1564142-.1177602.0395531-.2548474.0593296-.4112616.0593296-.2427117 0-.4625006-.0498908-.6593668-.1496723-.1968662-.0997814-.3618202-.2269803-.4948622-.3815967l-.2750733.3532803c.1618078.1815844.3618203.3249641.6000373.4301392.2382171.105175.5092452.1577626.8130842.1577626zm5.4550036 0c.5771145 0 1.0445593-.2454085 1.4023344-.7362256l-.385642-.2103501c-.1078719.16001-.2530494.2894562-.4355327.3883387-.1824832.0988826-.3762031.1483239-.5811597.1483239-.2660839 0-.5069978-.0633748-.7227415-.1901242-.2157438-.1267495-.385642-.3047381-.5096946-.5339658-.1240527-.2292277-.186079-.4867718-.186079-.7726323 0-.4386789.1348398-.7978023.4045195-1.0773703.2696797-.2795679.6076783-.4193519 1.0139956-.4193519.2067544 0 .4009238.0489918.5825081.1469754.1815844.0979836.3263124.2278793.4341843.3896872l.3802484-.2157438c-.3397964-.4872213-.8054433-.730832-1.3969408-.730832-.2624882 0-.510144.0467445-.7429675.1402335-.2328234.093489-.4337348.2224857-.6027341.3869904-.1689993.1645045-.3029402.3663148-.4018227.6054308-.0988826.239116-.1483239.4971096-.1483239.7739807s.0494413.5348647.1483239.7739807c.0988825.239116.2328234.4409263.4018227.6054309s.3699107.2935014.6027341.3869904c.2328235.0934889.4804793.1402334.7429675.1402334zm4.2147852-.0674199v-.4099132h-1.7124659v-3.2739113h-.4584555v3.6838245zm.873454 0 .3263124-.8225231h1.8338219l.3263124.8225231h.5231785l-1.4805414-3.6838245h-.5690241l-1.4859351 3.6838245zm2.0279912-1.2270426h-1.5641421l.7793742-1.9875393zm2.6937918 1.2944625c.239116 0 .4490167-.0310132.6297021-.0930395.1806854-.0620264.3222672-.145627.4247455-.2508021s.1788875-.219789.2292277-.3438416c.0503402-.1240527.0755103-.2561957.0755103-.3964291 0-.1474249-.0247206-.278669-.0741619-.3937324-.0494412-.1150633-.1164117-.2099007-.2009113-.2845121-.0844997-.0746113-.1811349-.1402334-.2899057-.1968661-.1087708-.0566328-.2233847-.1033772-.3438416-.1402334-.1204569-.0368563-.2413633-.0714652-.3627192-.1038267-.1213558-.0323616-.2364192-.0656221-.34519-.0997815-.1087707-.0341594-.205406-.072364-.2899056-.1146139-.0844996-.0422498-.1514701-.0966352-.2009114-.1631562-.0494412-.066521-.0741619-.1438292-.0741619-.2319245 0-.172595.0714651-.3132779.2143954-.4220487.1429302-.1087708.324065-.1631562.5434045-.1631562.4494661 0 .8045444.1474249 1.0652348.4422747l.2750732-.3370996c-.3290092-.3469879-.7631935-.5204819-1.3025528-.5204819-.3667644 0-.6701541.0957364-.9101689.2872089-.240015.1914726-.3600224.4382295-.3600224.7402708 0 .1402334.0247206.2647355.0741619.3735063s.1164117.1977651.2009114.2669829c.0844996.0692178.1811348.1298957.2899056.1820338s.2238341.0952868.34519.1294463c.1213558.0341594.2422622.0674199.3627192.0997814.1204569.0323616.2350708.0669705.3438416.1038267s.205406.079106.2899056.1267494c.0844997.0476435.1514701.1096698.2009114.186079.0494413.0764093.0741619.1649541.0741619.2656345 0 .0773082-.0148324.1514701-.0444972.2224857-.0296647.0710157-.0764092.1388851-.1402334.2036082-.0638242.0647232-.1546163.1168612-.2723765.1564142-.1177601.0395531-.2548473.0593296-.4112615.0593296-.2427117 0-.4625006-.0498908-.6593668-.1496723-.1968662-.0997814-.3618202-.2269803-.4948622-.3815967l-.2750733.3532803c.1618078.1815844.3618203.3249641.6000373.4301392.238217.105175.5092451.1577626.8130842.1577626zm3.3545071 0c.2391159 0 .4490167-.0310132.629702-.0930395.1806854-.0620264.3222673-.145627.4247456-.2508021.1024782-.1051751.1788875-.219789.2292277-.3438416.0503401-.1240527.0755103-.2561957.0755103-.3964291 0-.1474249-.0247207-.278669-.0741619-.3937324-.0494413-.1150633-.1164118-.2099007-.2009114-.2845121-.0844997-.0746113-.1811349-.1402334-.2899057-.1968661-.1087707-.0566328-.2233846-.1033772-.3438415-.1402334-.120457-.0368563-.2413634-.0714652-.3627192-.1038267-.1213559-.0323616-.2364192-.0656221-.34519-.0997815s-.2054061-.072364-.2899057-.1146139c-.0844996-.0422498-.1514701-.0966352-.2009113-.1631562-.0494413-.066521-.0741619-.1438292-.0741619-.2319245 0-.172595.071465-.3132779.2143953-.4220487.1429302-.1087708.3240651-.1631562.5434045-.1631562.4494662 0 .8045444.1474249 1.0652348.4422747l.2750733-.3370996c-.3290092-.3469879-.7631935-.5204819-1.3025529-.5204819-.3667644 0-.670154.0957364-.9101689.2872089-.240015.1914726-.3600224.4382295-.3600224.7402708 0 .1402334.0247207.2647355.0741619.3735063.0494413.1087708.1164118.1977651.2009114.2669829s.1811349.1298957.2899056.1820338c.1087708.0521381.2238342.0952868.34519.1294463.1213559.0341594.2422623.0674199.3627192.0997814.1204569.0323616.2350708.0669705.3438416.1038267s.205406.079106.2899057.1267494c.0844996.0476435.1514701.1096698.2009113.186079.0494413.0764093.0741619.1649541.0741619.2656345 0 .0773082-.0148323.1514701-.0444971.2224857-.0296648.0710157-.0764093.1388851-.1402335.2036082-.0638242.0647232-.1546163.1168612-.2723764.1564142-.1177602.0395531-.2548473.0593296-.4112615.0593296-.2427118 0-.4625007-.0498908-.6593669-.1496723-.1968661-.0997814-.3618202-.2269803-.4948622-.3815967l-.2750733.3532803c.1618078.1815844.3618203.3249641.6000373.4301392.2382171.105175.5092452.1577626.8130843.1577626zm2.6209783-.0674199v-3.6838245h-.4584555v3.6838245zm1.4370846 0v-1.6801045h1.9147255v-.4072163h-1.9147255v-1.1865906h1.9551773v-.4099131h-2.4136329v3.6838245zm3.1603377 0v-3.6838245h-.4584557v3.6838245zm3.3922619 0v-.4099132h-1.9551778v-1.2701913h1.914726v-.4072163h-1.914726v-1.1865906h1.9551778v-.4099131h-2.413633v3.6838245zm2.1058902 0c.2822649 0 .5416066-.0467445.7780257-.1402335.2364192-.0934889.4355327-.2220362.5973405-.3856419s.2876586-.3582245.3775515-.5838565c.0898934-.225632.1348401-.4687932.1348401-.7294836 0-.3469878-.0764093-.6598162-.2292278-.9384853-.1528186-.278669-.3739557-.4993568-.6634118-.6620636-.2894561-.1627067-.6211625-.2440601-.9951182-.2440601h-1.2594039v3.6838245zm0-.4099132h-.8009487v-2.8639982h.8009487c.29485 0 .5505958.0647231.7672386.1941694.2166427.1294462.3784505.3011423.4854234.5150882s.1604596.4557586.1604596.7254383c0 .266084-.0543852.5060989-.163156.7200448-.1087709.2139458-.2719274.3856419-.4894691.5150882-.2175412.1294462-.4710403.1941693-.7604965.1941693zm5.4630937.4773331c.2391161 0 .4490168-.0310132.6297025-.0930395.1806853-.0620264.3222669-.145627.4247455-.2508021.102478-.1051751.1788873-.219789.2292273-.3438416.0503406-.1240527.0755103-.2561957.0755103-.3964291 0-.1474249-.0247205-.278669-.0741616-.3937324-.0494415-.1150633-.1164118-.2099007-.2009114-.2845121-.0844995-.0746113-.181135-.1402334-.2899058-.1968661-.1087709-.0566328-.2233843-.1033772-.3438413-.1402334-.120457-.0368563-.2413633-.0714652-.3627193-.1038267-.1213559-.0323616-.2364191-.0656221-.3451899-.0997815-.1087709-.0341594-.2054063-.072364-.2899059-.1146139-.0844995-.0422498-.1514699-.0966352-.2009114-.1631562-.0494411-.066521-.0741616-.1438292-.0741616-.2319245 0-.172595.0714652-.3132779.214395-.4220487.1429304-.1087708.3240654-.1631562.5434045-.1631562.4494665 0 .8045447.1474249 1.0652351.4422747l.2750731-.3370996c-.329009-.3469879-.7631934-.5204819-1.3025528-.5204819-.3667643 0-.6701538.0957364-.9101688.2872089-.2400151.1914726-.3600224.4382295-.3600224.7402708 0 .1402334.0247206.2647355.0741616.3735063.0494416.1087708.1164119.1977651.2009115.2669829.0844995.0692178.181135.1298957.2899058.1820338.1087709.0521381.223834.0952868.34519.1294463.121356.0341594.2422622.0674199.3627192.0997814.120457.0323616.2350705.0669705.3438413.1038267.1087709.0368562.2054063.079106.2899059.1267494.0844995.0476435.1514698.1096698.2009114.186079.0494411.0764093.0741616.1649541.0741616.2656345 0 .0773082-.0148323.1514701-.044497.2224857-.0296646.0710157-.0764092.1388851-.1402334.2036082-.0638241.0647232-.1546165.1168612-.2723766.1564142-.1177601.0395531-.2548474.0593296-.4112613.0593296-.242712 0-.4625009-.0498908-.6593667-.1496723-.1968663-.0997814-.3618202-.2269803-.4948624-.3815967l-.2750735.3532803c.1618078.1815844.3618203.3249641.6000374.4301392.2382171.105175.5092454.1577626.8130841.1577626zm2.6209783-.0674199v-3.6838245h-.4584552v3.6838245zm2.3486022 0v-3.2739114h1.1704096v-.4099131h-2.7938815v.4099131h1.1650162v3.2739114zm4.3091729 0v-.4099132h-1.9551778v-1.2701913h1.914726v-.4072163h-1.914726v-1.1865906h1.9551778v-.4099131h-2.413633v3.6838245z"/></g></svg>