<svg height="92" viewBox="0 0 92 92" width="92" xmlns="http://www.w3.org/2000/svg" xmlns:xlink="http://www.w3.org/1999/xlink"><defs><circle id="a" cx="36" cy="36" r="36"/><filter id="b" height="148.6%" width="148.6%" x="-24.3%" y="-17.4%"><feOffset dx="0" dy="5" in="SourceAlpha" result="shadowOffsetOuter1"/><feGaussianBlur in="shadowOffsetOuter1" result="shadowBlurOuter1" stdDeviation="5"/><feColorMatrix in="shadowBlurOuter1" type="matrix" values="0 0 0 0 0.137254902   0 0 0 0 0.137254902   0 0 0 0 0.137254902  0 0 0 0.1 0"/></filter></defs><g fill="none" fill-rule="evenodd"><g transform="translate(10 5)"><use fill="#000" filter="url(#b)" xlink:href="#a"/><use fill="#fff" fill-rule="evenodd" xlink:href="#a"/></g><path d="m0 .00133333h32v31.99999997h-32z" transform="translate(30 24)"/><path d="m26.5266667 24.7373333-12-23.99999997c-.452-.90266666-1.9333334-.90266666-2.3853334 0l-11.99999997 23.99999997c-.20533333.4133334-.18533333.9026667.05866667 1.2986667.24266667.392.67066667.6306667 1.13333333.6306667h23.99999997c.4626667 0 .8906667-.24 1.1346667-.632.2426667-.3946667.264-.8826667.0586667-1.2973334zm-14.5266667-14.0706666h2.6666667v8h-2.6666667zm1.3333333 12.3333333c-.92 0-1.6666666-.7453333-1.6666666-1.6666667 0-.92.7466666-1.6666666 1.6666666-1.6666666s1.6666667.7466666 1.6666667 1.6666666c0 .9213334-.7466667 1.6666667-1.6666667 1.6666667z" fill="#e89827" fill-rule="nonzero" transform="translate(32.666667 26.666667)"/></g></svg>