<svg height="18" viewBox="0 0 18 18" width="18" xmlns="http://www.w3.org/2000/svg" xmlns:xlink="http://www.w3.org/1999/xlink"><defs><path id="a" d="m13.9733186 12.0000389 6.0814084 6.2893543c.5341265.5523902.4379054 1.3665734-.2149159 1.818529-.6528212.4519556-1.6150324.3705373-2.1491589-.1818529l-5.6906522-5.8852367-5.69065223 5.8852367c-.53412646.5523902-1.49633768.6338085-2.14915892.1818529-.65282123-.4519556-.74904235-1.2661388-.21491589-1.818529l6.08140844-6.2893543-6.08140844-6.28935422c-.53412646-.55239022-.43790534-1.3665734.21491589-1.81852903.65282124-.45195564 1.61503246-.37053732 2.14915892.1818529l5.69065223 5.88523668 5.6906522-5.88523668c.5341265-.55239022 1.4963377-.63380854 2.1491589-.1818529.6528213.45195563.7490424 1.26613881.2149159 1.81852903z"/><mask id="b" fill="#fff"><use fill="#fff" fill-rule="evenodd" xlink:href="#a"/></mask></defs><g fill="#929292" fill-rule="evenodd" transform="translate(-3 -3)"><use fill-rule="nonzero" xlink:href="#a"/><g mask="url(#b)"><path d="m0 0h24v24h-24z"/></g></g></svg>