<svg height="92" viewBox="0 0 92 92" width="92" xmlns="http://www.w3.org/2000/svg" xmlns:xlink="http://www.w3.org/1999/xlink"><defs><circle id="a" cx="36" cy="36" r="36"/><filter id="b" height="148.6%" width="148.6%" x="-24.3%" y="-17.4%"><feOffset dx="0" dy="5" in="SourceAlpha" result="shadowOffsetOuter1"/><feGaussianBlur in="shadowOffsetOuter1" result="shadowBlurOuter1" stdDeviation="5"/><feColorMatrix in="shadowBlurOuter1" type="matrix" values="0 0 0 0 0.137254902   0 0 0 0 0.137254902   0 0 0 0 0.137254902  0 0 0 0.1 0"/></filter></defs><g fill="none" fill-rule="evenodd"><g transform="translate(10 5)"><use fill="#000" filter="url(#b)" xlink:href="#a"/><use fill="#fff" fill-rule="evenodd" xlink:href="#a"/></g><g transform="translate(30 25)"><path d="m0 0h32v32h-32z"/><g fill="#58a788" fill-rule="nonzero" transform="translate(2.953846 5.415385)"><path d="m21.32352 24.1230769h-18.60923077c-1.46614154 0-2.65846154-1.2021333-2.65846154-2.6803419v-16.08205124c0-1.47686838 1.19232-2.68034188 2.65846154-2.68034188h13.29230767v2.68034188h-13.29230767v16.08205124h18.60923077v-6.7008547h2.6584615v6.7008547c0 1.4782086-1.19232 2.6803419-2.6584615 2.6803419z"/><path d="m12.0747323 18.5091009-6.54779076-6.6030223 2.34875077-2.36942219 4.08605539 4.11968549 12.1199261-13.44325472 2.4577477 2.25416752z"/></g></g></g></svg>