<svg height="92" viewBox="0 0 92 92" width="92" xmlns="http://www.w3.org/2000/svg" xmlns:xlink="http://www.w3.org/1999/xlink"><defs><circle id="a" cx="36" cy="36" r="36"/><filter id="b" height="148.6%" width="148.6%" x="-24.3%" y="-17.4%"><feOffset dx="0" dy="5" in="SourceAlpha" result="shadowOffsetOuter1"/><feGaussianBlur in="shadowOffsetOuter1" result="shadowBlurOuter1" stdDeviation="5"/><feColorMatrix in="shadowBlurOuter1" type="matrix" values="0 0 0 0 0.137254902   0 0 0 0 0.137254902   0 0 0 0 0.137254902  0 0 0 0.1 0"/></filter></defs><g fill="none" fill-rule="evenodd"><g transform="translate(10 5)"><use fill="#000" filter="url(#b)" xlink:href="#a"/><use fill="#fff" fill-rule="evenodd" xlink:href="#a"/></g><g transform="translate(30 25)"><path d="m0 0h32v32h-32z"/><path d="m0 22.4373333v2.896c0 .736.59733333 1.3333334 1.33333333 1.3333334h15.99999997c.736 0 1.3333334-.5973334 1.3333334-1.3333334v-2.896c0-1.0533333-.4266667-2.0826666-1.172-2.828l-6.276-6.276 6.276-6.27599997c.756-.756 1.172-1.76 1.172-2.83066666v-2.89333334c0-.736-.5973334-1.33333333-1.3333334-1.33333333h-15.99999997c-.736 0-1.33333333.59733333-1.33333333 1.33333333v2.89333334c0 1.06933333.416 2.07333333 1.172 2.828l6.276 6.27866663-6.276 6.276c-.74533333.744-1.172 1.7746667-1.172 2.828zm5.33333333-18.43866663h7.99999997l-3.99999997 4z" fill="#e89827" fill-rule="nonzero" transform="translate(6.666667 2.666667)"/></g></g></svg>